<svg xmlns="http://www.w3.org/2000/svg" viewBox="0 0 48 48" width="48px" height="48px">
  <path fill="#4285f4" d="M42,21h-5v-5h-4v5h-5v4h5v5h4v-5h5V21z"/>
  <path fill="#db4437" d="M37,31H11c-1.657,0-3-1.343-3-3V11c0-1.657,1.343-3,3-3h26c1.657,0,3,1.343,3,3v20 C40,29.657,38.657,31,37,31z"/>
  <path fill="#ffffff" d="M11,10c-0.552,0-1,0.448-1,1v17c0,0.552,0.448,1,1,1h26c0.552,0,1-0.448,1-1V11c0-0.552-0.448-1-1-1H11z"/>
  <path fill="#db4437" d="M22,14h4v4h-4V14z M28,14h4v4h-4V14z M16,20h4v4h-4V20z M22,20h4v4h-4V20z M28,20h4v4h-4V20z"/>
</svg>