<svg xmlns="http://www.w3.org/2000/svg" viewBox="0 0 48 48" width="48px" height="48px">
  <path fill="#0078d4" d="M44,19.667V41c0,1.657-1.343,3-3,3H7c-1.657,0-3-1.343-3-3V7c0-1.657,1.343-3,3-3h21.333L44,19.667z"/>
  <path fill="#0078d4" d="M44,20H32c-1.657,0-3-1.343-3-3V4L44,20z"/>
  <path fill="#ffffff" d="M24.5,27c-0.676,0-1.308,0.173-1.859,0.477C22.077,26.585,21.103,26,20,26 c-1.657,0-3,1.343-3,3v6c0,1.657,1.343,3,3,3s3-1.343,3-3v-3h3v3c0,1.657,1.343,3,3,3s3-1.343,3-3v-6c0-1.657-1.343-3-3-3H24.5z"/>
</svg>